<?xml version="1.0" encoding="utf-8"?>
<!-- Generator: Adobe Illustrator 19.1.0, SVG Export Plug-In . SVG Version: 6.00 Build 0)  -->
<svg version="1.1" id="Layer_1" xmlns="http://www.w3.org/2000/svg" xmlns:xlink="http://www.w3.org/1999/xlink" x="0px" y="0px"
	 viewBox="0 0 36 37" style="enable-background:new 0 0 36 37;" xml:space="preserve">
<style type="text/css">
	.st0{fill:#F7F7F7;}
</style>
<path class="st0" d="M28.1,9.6L5,23.1c0.6,1.9,1.6,3.6,3,5.1l23-13.5C30.4,12.8,29.4,11.1,28.1,9.6z"/>
<path class="st0" d="M30,5.2l-3.8,2.2c0.8,0.6,1.5,1.2,2.1,2c1.3,1.5,2.3,3.3,2.9,5.3c0.3,0.9,0.5,1.9,0.5,2.8
	c0,0.4,0.1,0.9,0.1,1.3c0,1.8-0.3,3.5-0.9,5c-2,5.3-7.1,9.1-13,9.1c-0.7,0-1.5-0.1-2.2-0.2l-4.9,2.8c2.2,0.9,4.6,1.5,7.1,1.5
	c9.9,0,18-8.2,18-18.2C36,13.4,33.7,8.5,30,5.2z"/>
<path class="st0" d="M29.2,0l-5.1,3l-4.5,2.6L5,14.2c-0.5,1.4-0.7,2.9-0.7,4.4c0,0.5,0,1,0.1,1.5L25,7.9l3.5-2.1l6-3.5L29.2,0z"/>
<path class="st0" d="M18,0.5C8.1,0.5,0,8.7,0,18.8c0,5.5,2.4,10.4,6.2,13.7l3.8-2.2c-0.8-0.6-1.5-1.2-2.1-1.9
	c-1.4-1.5-2.4-3.2-3-5.2c-0.3-0.9-0.5-1.9-0.6-2.9c-0.1-0.5-0.1-1-0.1-1.6c0-1.7,0.3-3.2,0.8-4.7C6.8,8.6,11.9,4.6,18,4.6
	c0.9,0,1.7,0.1,2.5,0.2l4.8-2.8C23.1,1.1,20.6,0.5,18,0.5z"/>
<path class="st0" d="M31.6,17.7l-20.3,12l-3.5,2.1l-6.1,3.6l6.8,1.5l3.8-2.2l4.5-2.7l14.1-8.3c0.5-1.5,0.9-3,0.9-4.7
	C31.7,18.5,31.7,18.1,31.6,17.7z"/>
</svg>
